<svg xmlns="http://www.w3.org/2000/svg" viewBox="0 0 32 32" width="32" height="32">
  <!-- Background circle with gradient -->
  <defs>
    <linearGradient id="bgGradient" x1="0%" y1="0%" x2="100%" y2="100%">
      <stop offset="0%" style="stop-color:#1e40af;stop-opacity:1" />
      <stop offset="100%" style="stop-color:#1d4ed8;stop-opacity:1" />
    </linearGradient>
  </defs>
  
  <!-- Background circle -->
  <circle cx="16" cy="16" r="16" fill="url(#bgGradient)"/>
  
  <!-- Head shape -->
  <ellipse cx="16" cy="12" rx="7" ry="8" fill="#fbbf24"/>
  
  <!-- Hair -->
  <path d="M 9 6 Q 16 3 23 6 Q 22 9 20 10 Q 18 9 16 9 Q 14 9 12 10 Q 10 9 9 6" fill="#1f2937"/>
  
  <!-- Glasses frames - distinctive feature -->
  <ellipse cx="13" cy="11" rx="2.5" ry="3" fill="none" stroke="#374151" stroke-width="1"/>
  <ellipse cx="19" cy="11" rx="2.5" ry="3" fill="none" stroke="#374151" stroke-width="1"/>
  
  <!-- Glasses bridge -->
  <line x1="15.5" y1="11" x2="16.5" y2="11" stroke="#374151" stroke-width="0.8"/>
  
  <!-- Eyes -->
  <circle cx="13" cy="10.5" r="1" fill="#1f2937"/>
  <circle cx="19" cy="10.5" r="1" fill="#1f2937"/>
  
  <!-- Beard - distinctive feature -->
  <path d="M 9 14 Q 9 18 16 18 Q 23 18 23 14" fill="#1f2937"/>
  
  <!-- Mustache -->
  <path d="M 11 15 Q 13.5 16 16 16 Q 18.5 16 21 15" fill="#1f2937"/>
  
  <!-- Mouth -->
  <path d="M 12 17 Q 16 18 20 17" fill="none" stroke="#1f2937" stroke-width="0.6"/>
  
  <!-- Jacket collar -->
  <path d="M 12 20 L 20 20 L 20 22 L 12 22 Z" fill="#1e3a8a"/>
  
  <!-- White stripes on jacket -->
  <rect x="10" y="21" width="2" height="0.5" fill="#ffffff"/>
  <rect x="20" y="21" width="2" height="0.5" fill="#ffffff"/>
</svg> 