<svg xmlns="http://www.w3.org/2000/svg" viewBox="0 0 64 64" width="64" height="64">
  <!-- Background with gradient -->
  <defs>
    <linearGradient id="bgGradient" x1="0%" y1="0%" x2="100%" y2="100%">
      <stop offset="0%" style="stop-color:#1e40af;stop-opacity:1" />
      <stop offset="100%" style="stop-color:#1d4ed8;stop-opacity:1" />
    </linearGradient>
    <linearGradient id="jacketGradient" x1="0%" y1="0%" x2="100%" y2="100%">
      <stop offset="0%" style="stop-color:#1e3a8a;stop-opacity:1" />
      <stop offset="100%" style="stop-color:#1e40af;stop-opacity:1" />
    </linearGradient>
  </defs>
  
  <!-- Background circle -->
  <circle cx="32" cy="32" r="32" fill="url(#bgGradient)"/>
  
  <!-- Jacket/hoodie body -->
  <path d="M 20 25 L 20 45 L 44 45 L 44 25 Q 44 20 40 18 L 24 18 Q 20 20 20 25" fill="url(#jacketGradient)"/>
  
  <!-- White stripes on sleeves -->
  <rect x="18" y="28" width="4" height="1" fill="#ffffff"/>
  <rect x="18" y="31" width="4" height="1" fill="#ffffff"/>
  <rect x="42" y="28" width="4" height="1" fill="#ffffff"/>
  <rect x="42" y="31" width="4" height="1" fill="#ffffff"/>
  
  <!-- Head shape -->
  <ellipse cx="32" cy="22" rx="12" ry="14" fill="#fbbf24"/>
  
  <!-- Hair -->
  <path d="M 20 10 Q 32 6 44 10 Q 42 14 40 16 Q 36 14 32 14 Q 28 14 24 16 Q 22 14 20 10" fill="#1f2937"/>
  
  <!-- Glasses frames -->
  <ellipse cx="28" cy="21" rx="3.5" ry="4.5" fill="none" stroke="#374151" stroke-width="1.2"/>
  <ellipse cx="36" cy="21" rx="3.5" ry="4.5" fill="none" stroke="#374151" stroke-width="1.2"/>
  
  <!-- Glasses bridge -->
  <line x1="31.5" y1="21" x2="32.5" y2="21" stroke="#374151" stroke-width="0.8"/>
  
  <!-- Eyes -->
  <circle cx="28" cy="20" r="1.5" fill="#1f2937"/>
  <circle cx="36" cy="20" r="1.5" fill="#1f2937"/>
  
  <!-- Eye highlights -->
  <circle cx="27.5" cy="19.5" r="0.4" fill="#ffffff"/>
  <circle cx="35.5" cy="19.5" r="0.4" fill="#ffffff"/>
  
  <!-- Nose -->
  <ellipse cx="32" cy="25" rx="1" ry="2" fill="#fbbf24"/>
  
  <!-- Beard -->
  <path d="M 20 26 Q 20 32 32 32 Q 44 32 44 26" fill="#1f2937"/>
  
  <!-- Mustache -->
  <path d="M 24 27 Q 28 28 32 28 Q 36 28 40 27" fill="#1f2937"/>
  
  <!-- Mouth -->
  <path d="M 28 30 Q 32 31 36 30" fill="none" stroke="#1f2937" stroke-width="0.8"/>
  
  <!-- Arms crossed position -->
  <path d="M 18 30 L 18 40 L 22 40 L 22 30 Z" fill="url(#jacketGradient)"/>
  <path d="M 42 30 L 42 40 L 46 40 L 46 30 Z" fill="url(#jacketGradient)"/>
  
  <!-- Hands -->
  <ellipse cx="20" cy="42" rx="2" ry="3" fill="#fbbf24"/>
  <ellipse cx="44" cy="42" rx="2" ry="3" fill="#fbbf24"/>
</svg> 